HIERARCHY
ROOT Hips
{
  OFFSET 13.6774 106.653 -34.4427
  CHANNELS 6 Xposition Yposition Zposition Zrotation Xrotation Yrotation
  JOINT ToSpine
  {
    OFFSET -2.69724 7.43032 -0.144315
    CHANNELS 3 Zrotation Xrotation Yrotation
    JOINT Spine
    {
      OFFSET -0.0310711 10.7595 1.96963
      CHANNELS 3 Zrotation Xrotation Yrotation
      JOINT Spine1
      {
        OFFSET 19.9056 3.91189 0.764692
        CHANNELS 3 Zrotation Xrotation Yrotation
        JOINT Neck
        {
          OFFSET 25.9749 7.03908 -0.130764
          CHANNELS 3 Zrotation Xrotation Yrotation
          JOINT Head
          {
            OFFSET 9.52751 0.295786 -0.907742
            CHANNELS 3 Zrotation Xrotation Yrotation
            End Site
            {
              OFFSET 16.4037 0.713936 2.7358
            }
          }
        }
        JOINT LeftShoulder
        {
          OFFSET 17.7449 4.33886 11.7777
          CHANNELS 3 Zrotation Xrotation Yrotation
          JOINT LeftArm
          {
            OFFSET 0.911315 1.27913 9.80584
            CHANNELS 3 Zrotation Xrotation Yrotation
            JOINT LeftForeArm
            {
              OFFSET 28.6126 1.18197 -3.53199
              CHANNELS 3 Zrotation Xrotation Yrotation
              JOINT LeftHand
              {
                OFFSET 27.5088 0.0218783 0.327423
                CHANNELS 3 Zrotation Xrotation Yrotation
                End Site
                {
                  OFFSET 18.6038 -0.000155887 0.382096
                }
              }
            }
          }
        }
        JOINT RightShoulder
        {
          OFFSET 17.1009 2.89543 -12.2328
          CHANNELS 3 Zrotation Xrotation Yrotation
          JOINT RightArm
          {
            OFFSET 1.4228 0.178766 -10.211
            CHANNELS 3 Zrotation Xrotation Yrotation
            JOINT RightForeArm
            {
              OFFSET 28.733 1.87905 2.64907
              CHANNELS 3 Zrotation Xrotation Yrotation
              JOINT RightHand
              {
                OFFSET 27.4588 0.290562 -0.101845
                CHANNELS 3 Zrotation Xrotation Yrotation
                End Site
                {
                  OFFSET 17.8396 -0.255518 -0.000602873
                }
              }
            }
          }
        }
      }
    }
  }
  JOINT LeftUpLeg
  {
    OFFSET -5.61296 -2.22332 -10.2353
    CHANNELS 3 Zrotation Xrotation Yrotation
    JOINT LeftLeg
    {
      OFFSET 2.56703 -44.7417 -7.93097
      CHANNELS 3 Zrotation Xrotation Yrotation
      JOINT LeftFoot
      {
        OFFSET 3.16933 -46.5642 -3.96578
        CHANNELS 3 Zrotation Xrotation Yrotation
        JOINT LeftToeBase
        {
          OFFSET 0.346054 -6.02161 12.8035
          CHANNELS 3 Zrotation Xrotation Yrotation
          End Site
          {
            OFFSET 0.134235 -1.35082 5.13018
          }
        }
      }
    }
  }
  JOINT RightUpLeg
  {
    OFFSET -5.7928 -1.72406 10.6446
    CHANNELS 3 Zrotation Xrotation Yrotation
    JOINT RightLeg
    {
      OFFSET -2.57161 -44.7178 -7.85259
      CHANNELS 3 Zrotation Xrotation Yrotation
      JOINT RightFoot
      {
        OFFSET -3.10148 -46.5936 -4.03391
        CHANNELS 3 Zrotation Xrotation Yrotation
        JOINT RightToeBase
        {
          OFFSET -0.0828122 -6.13587 12.8035
          CHANNELS 3 Zrotation Xrotation Yrotation
          End Site
          {
            OFFSET -0.131328 -1.35082 5.13018
          }
        }
      }
    }
  }
}
MOTION
Frames: 21
Frame Time: 0.03333333333333333
0.0000 93.1000 0.0000 39.2945 -43.9912 -37.8724 -71.4432 0.1878 87.6548 133.7447 72.6813 -48.0702 -8.4853 27.4121 1.1488 -166.3849 21.9171 179.8324 -160.1728 62.1119 -170.1805 -0.4565 -14.2831 -33.0558 -59.0813 59.5340 -70.1307 3.5120 3.1053 -48.6525 0.2539 -0.4141 0.3914 -1.8756 6.6448 34.4219 -80.1326 -36.1100 105.9631 19.8768 -2.2818 84.2924 -0.2821 0.4851 0.6744 -4.8915 3.9038 93.6658 -3.1338 42.7810 -7.3676 -3.2121 -4.7821 -1.0690 9.6399 -20.0699 15.9520 -64.0956 0.6238 79.1500 -0.2317 28.1853 21.1761 -6.0369 -11.8166 0.7262 2.7957 -22.6445 -1.1364 
0.0000 93.1000 0.0000 38.1679 -44.7618 -41.0998 -71.3991 -0.0614 87.8685 137.8382 72.2062 -55.7915 -9.2361 28.8782 -0.1413 -166.3681 22.1096 177.6058 -158.3220 61.9493 -170.7778 -0.2717 -13.9289 -31.8416 -59.2871 60.9045 -67.1028 4.2397 2.6540 -51.4839 0.0737 -0.0640 0.1852 -1.8421 6.9170 32.1129 -85.0954 -38.4807 104.2868 22.8841 -0.0088 90.2665 0.0458 -0.2331 -0.0031 -1.4645 5.4480 97.9541 -4.0680 49.9313 -8.1237 -3.0488 -4.0404 -1.0045 9.3391 -21.5022 15.8470 -66.3961 -2.1658 80.3475 -2.0026 32.0066 24.0187 -4.3999 -9.8164 0.6354 3.8300 -28.3498 3.6139 
0.0000 93.1000 0.0000 35.3385 -44.2683 -43.2910 -71.3899 -0.0441 87.9254 134.8006 73.0950 -53.9828 -8.4826 29.8797 -0.9429 -166.1159 22.6605 174.3595 -159.3957 61.9973 -169.7905 -0.0607 -13.9774 -31.8590 -64.8709 61.0246 -62.1188 3.8152 2.8687 -53.1139 -0.0800 0.1193 -0.0873 -1.9214 6.7806 32.9253 -86.3603 -38.8377 101.0256 23.4402 1.0507 93.4464 0.4687 -0.3383 -0.1184 0.7672 6.8054 100.5291 -5.7152 58.6528 -4.6260 1.1638 -8.0342 -1.6877 5.5292 -15.1280 11.8974 -66.4230 -1.2080 87.9436 -1.2171 33.7998 13.1338 -3.0937 2.2378 0.0735 5.7420 -35.5079 14.8780 
0.0000 93.1000 0.0000 33.8277 -41.7829 -44.3167 -71.2966 -0.0606 87.9242 130.9003 73.1150 -52.3924 -7.6397 28.9846 -0.5332 -167.5238 22.1747 172.0084 -160.6086 61.8442 -169.3337 -0.0104 -14.3854 -31.9842 -69.4495 57.7972 -60.0413 4.0273 3.0983 -53.7644 -0.5136 0.2950 -0.3171 -1.9425 6.3456 34.8463 -85.4451 -38.8260 95.3452 20.3320 1.4056 94.4235 0.3986 -0.5262 -0.1829 1.0264 5.6468 101.6876 -7.6378 64.3027 -3.6972 3.7821 -13.2520 -2.0020 2.4164 -9.2096 11.6116 -62.1321 -0.1659 93.6485 2.0441 41.4648 5.7849 2.7376 16.5620 -1.8037 4.6331 -32.9961 10.5212 
0.0000 93.1000 0.0000 34.0285 -39.7626 -42.2307 -71.2920 -0.0694 87.6561 127.8393 72.3418 -51.6317 -6.3682 26.9000 -0.0510 -167.0804 22.1687 172.0818 -161.4013 62.0585 -166.0762 -0.2584 -15.0213 -32.8537 -76.0607 53.8316 -57.9554 4.7927 2.7805 -55.6958 0.0220 0.3855 -0.3887 -1.9433 6.7946 37.5297 -81.5486 -38.5487 90.2075 17.4743 0.0050 91.1674 0.1714 -0.6868 -0.3797 -1.9995 2.8124 101.0309 -10.1548 69.2480 -1.4138 4.4095 -17.0058 -2.0249 2.2183 -8.3750 14.5168 -53.1551 1.8802 95.7504 4.4595 60.2605 2.0223 7.8716 22.5595 -4.0903 3.8665 -13.8200 -24.6126 
0.0000 93.1000 0.0000 37.0012 -37.6585 -41.0481 -71.1135 -0.2432 87.6615 122.8898 70.6718 -49.2865 -5.1527 25.1391 -0.2571 -167.4904 21.0160 172.4005 -160.4682 61.3241 -166.3732 -1.0253 -15.9316 -34.0664 -82.0784 49.7896 -58.0339 3.8883 2.7454 -58.4749 -0.1010 0.1300 -0.1923 -2.0415 6.6928 40.9987 -76.2955 -38.7307 86.3871 15.8556 -2.3545 82.4596 -0.1403 -0.1958 -0.2164 -6.1181 -1.0079 100.9643 -13.0271 72.2178 -1.9730 3.8445 -19.6938 -1.8526 4.1883 -13.0362 19.2544 -40.2049 2.8960 94.1543 18.5273 81.3789 -23.9429 3.0694 17.5093 -2.5690 0.4227 -3.6033 -8.4811 
0.0000 93.1000 0.0000 38.2729 -35.7838 -39.8526 -71.1308 0.4207 87.7623 119.0655 69.9703 -46.6086 -3.8916 23.8051 0.0040 -168.0836 20.7929 172.7333 -160.9724 60.9898 -166.1186 -0.6484 -17.1111 -34.6738 -84.3117 43.8172 -64.9898 5.7400 3.0660 -60.4971 -0.1271 0.5311 -0.3161 -2.1536 5.9827 42.8425 -71.5567 -39.8315 82.0707 12.6747 -4.9757 71.0692 0.3878 -0.3834 -0.4854 -11.8410 -4.3777 100.6862 -12.9032 71.0209 -5.2444 4.7461 -22.7053 -2.2960 5.9427 -15.9993 21.8556 -25.4331 4.3164 94.2668 153.7365 80.3000 -156.4359 -1.4630 19.0790 -1.2620 2.2961 -10.9700 -12.2166 
0.0000 93.1000 0.0000 38.9317 -34.6568 -37.6607 -71.2838 -0.0177 87.5684 119.1072 68.1025 -44.9436 -5.0152 21.7814 0.7841 -167.2454 20.0751 171.7704 -160.3097 60.1488 -166.1616 -1.0036 -16.5359 -34.0287 -87.2772 40.9203 -71.1079 7.2059 2.8825 -65.6995 -0.1941 -0.0696 -0.2939 -3.0455 6.0785 45.6261 -66.4791 -41.9173 76.1534 7.9442 -4.9410 61.3411 0.3399 -0.0869 -0.2058 -21.0687 -5.4414 99.9725 -10.7150 68.0735 -9.2813 3.8044 -23.9924 -2.1932 7.9856 -18.2570 21.2803 -11.3662 4.8728 92.3583 166.2489 71.7792 -172.6969 -6.9823 20.4134 -0.0015 0.8366 -14.7940 -5.1145 
0.0000 93.1000 0.0000 42.2773 -32.7099 -31.8870 -71.3835 0.0390 87.6624 120.1341 65.4672 -43.3239 -6.1309 19.0860 1.6385 -165.3778 19.2277 172.2335 -158.8837 59.0126 -167.0230 -0.8071 -15.6502 -32.7344 -94.7887 41.9197 -69.0569 11.3563 2.6021 -76.6740 0.1240 -0.1544 -0.1069 -2.9991 5.9668 46.8286 -60.5307 -44.6780 71.0624 4.0823 -3.7417 55.1335 -0.0065 0.0100 0.1430 -31.9227 -6.0414 96.6457 -8.8915 62.1455 -14.2316 2.5358 -24.3771 -2.2907 8.7671 -18.7694 20.1182 -1.1337 4.4700 88.6036 167.4128 69.4040 -174.8747 -11.9820 17.1167 1.1674 1.8444 -17.2950 -3.6576 
0.0000 93.1000 0.0000 41.7217 -31.7400 -28.2287 -71.2843 0.2705 87.6531 118.2456 63.3294 -35.7420 -5.6457 16.5669 1.3329 -164.2031 17.7240 171.9498 -157.1015 57.4443 -169.4383 -0.2796 -14.0632 -30.8841 -97.2860 43.9168 -68.0108 12.0421 0.2683 -87.4766 0.1210 0.1037 -0.2782 -3.0060 5.8075 48.7274 -57.4577 -46.3767 63.8270 2.6303 -2.6696 54.0415 0.1055 -0.2061 -0.1234 -43.1726 -2.9081 93.0026 -6.0242 54.2992 -15.1821 0.5775 -20.5353 -2.2160 9.0124 -18.4837 12.8965 5.5130 5.0965 84.1708 163.2883 75.5392 -167.7504 -10.3198 14.9736 1.2880 2.1710 -18.2966 -11.6048 
0.0000 93.1000 0.0000 41.8681 -34.5201 -25.2738 -71.4324 0.2945 87.7654 117.2411 63.0957 -28.7994 -4.0963 15.6765 1.4213 -160.1826 16.0432 171.9370 -153.2243 55.9763 -172.4643 -0.0889 -13.8740 -30.2446 -97.1858 43.7582 -67.9069 13.7022 -1.9696 -95.7995 -0.2378 0.3113 -0.1891 -2.9967 5.9232 49.6321 -58.6020 -48.1424 55.8493 2.0888 -2.8181 53.1921 0.2104 -0.5359 -0.4556 -54.0578 1.5687 92.4412 -4.4638 44.0244 -15.2361 -1.8506 -5.1060 -0.7927 11.0281 -24.6116 3.8787 7.6228 6.7018 81.6103 113.4479 86.2656 -119.2021 -9.5522 15.6366 1.2048 1.8723 -20.8695 -6.8430 
0.0000 93.1000 0.0000 44.8646 -33.7678 -23.2494 -71.4241 -0.0602 87.6200 114.2343 63.1667 -26.2284 -4.4876 14.2286 2.6105 -157.2531 15.1505 171.0607 -151.5291 55.0252 -174.0014 -0.2584 -13.9807 -29.7008 -95.1616 45.0245 -67.8867 13.8990 -4.4507 -104.6487 0.0008 -0.0169 -0.2016 -2.8815 6.2019 48.9069 -63.4138 -49.1978 47.8937 1.9562 -2.3664 54.1954 0.1300 -0.2182 0.0811 -62.8590 0.8930 88.1854 -4.3268 37.4620 -15.9004 -7.5695 9.9729 1.7296 6.5544 -15.6257 -0.4891 4.8104 6.2883 81.3141 9.5284 75.6335 -13.1918 -6.2914 12.9445 0.3880 0.4338 -10.1204 -5.3030 
0.0000 93.1000 0.0000 43.7825 -32.6777 -25.0259 -71.4735 0.0856 87.5700 105.2854 63.6078 -18.9263 -2.0477 13.9527 3.0944 -155.1217 14.6007 171.5057 -150.6687 54.2366 -173.8001 -0.1094 -13.7371 -28.9447 -93.1347 45.8633 -66.8936 15.0498 -6.9634 -110.5122 -0.0942 0.2883 -0.1830 -2.7271 6.0271 47.7722 -67.6547 -48.2746 43.8622 2.7817 -2.7835 56.0069 0.1632 -0.5689 -0.1213 -64.7791 -2.0169 85.9109 -4.3073 41.1159 -13.7157 -6.6379 13.4521 1.7288 1.1078 -4.9879 4.6502 1.6529 7.1812 83.2455 5.7604 58.6269 3.2052 -4.4893 13.5695 -0.3424 2.6066 -15.8653 -21.6601 
0.0000 93.1000 0.0000 42.9883 -33.5370 -29.3558 -71.2478 0.1516 87.6630 100.3202 64.4259 -15.6390 -1.1526 14.3481 3.1028 -155.0644 14.9501 173.6133 -150.2624 54.2752 -173.8680 -0.2193 -13.3321 -28.2155 -89.3565 48.0128 -69.1388 16.6595 -6.9875 -109.7219 -0.2013 0.3016 -0.3147 -2.6907 5.9842 46.7499 -70.5275 -46.0296 43.8452 1.9142 -1.8926 57.1325 0.4165 -0.5391 -0.1011 -61.9868 -3.9351 88.7451 -5.1928 53.3774 -5.8929 -6.6109 7.2726 1.0857 -0.7184 -2.0745 7.1081 -3.2568 7.1996 84.2412 3.5672 44.4554 6.6099 -3.0155 11.1002 -0.7382 2.0401 -21.3144 -20.6945 
0.0000 93.1000 0.0000 43.9475 -35.7493 -29.0997 -71.4941 -0.1560 87.5511 104.2236 65.0643 -18.7639 -1.1292 15.8215 2.8376 -155.0237 15.7822 174.9348 -150.8220 55.0094 -172.9593 -0.1647 -14.8297 -29.9357 -87.3834 49.0008 -68.2230 15.8216 -4.8562 -103.6903 -0.1194 0.1606 -0.0301 -3.2021 5.5462 46.8457 -74.3472 -43.0583 45.7770 1.0919 -1.9989 57.0669 -0.0546 -0.2537 -0.0855 -57.7468 -4.1738 92.8965 -9.9623 70.2213 1.8088 -5.2177 6.0669 0.9481 0.6088 -5.7121 9.3056 -8.2233 7.5567 83.4310 2.3920 43.6825 1.0715 -1.3077 5.9838 -0.7808 1.9763 -16.4925 -17.4991 
0.0000 93.1000 0.0000 47.9199 -35.8426 -28.1570 -71.5908 -0.1303 87.4727 111.3357 64.8793 -25.7244 -2.6042 16.3993 2.9199 -153.9917 16.7404 175.2366 -149.6382 56.0763 -172.3891 -0.1052 -14.7873 -30.7934 -85.1562 50.0695 -68.3813 14.8466 -2.3377 -95.4292 -0.0645 0.1911 -0.0636 -3.3167 4.9657 48.8038 -76.5189 -39.1484 49.8775 1.3636 -1.7276 58.1290 -0.1123 0.1049 -0.0106 -50.8506 -3.1115 94.8931 -70.1451 85.2386 62.7948 -3.1507 3.8120 0.3964 1.9352 -9.5295 10.9865 -16.3251 6.0900 83.0966 2.1952 48.5723 -3.7091 -4.2638 -1.7788 0.2111 -0.5440 -7.8403 -0.6007 
0.0000 93.1000 0.0000 50.0709 -35.5981 -25.0112 -71.2970 0.1655 87.3608 119.4743 64.2338 -32.7876 -2.9637 16.9671 2.9622 -156.0216 17.8150 175.8549 -150.5579 57.3434 -172.4755 0.2041 -14.9980 -32.1747 -83.5790 51.1663 -68.0962 14.1409 1.3476 -85.3348 -0.0864 0.3258 -0.2448 -3.2108 5.2532 49.6277 -77.6933 -36.0453 56.9395 2.1349 -1.8349 59.8812 0.2752 0.0182 0.0492 -37.6953 -0.1273 93.8806 -161.4156 74.1699 156.2258 -0.9882 3.1487 -0.4731 3.0705 -10.0160 10.0370 -23.8140 6.1379 82.1479 2.6757 51.6759 1.2402 -4.2397 -14.2254 0.7897 2.0378 -4.2333 -12.4908 
0.0000 93.1000 0.0000 47.9595 -34.1586 -23.9307 -71.3327 0.0778 87.3951 124.2749 65.3955 -33.0995 -4.0488 18.7514 3.1457 -162.1662 19.7143 176.9711 -150.9825 59.0266 -176.7646 -0.2757 -15.1843 -33.7593 -82.3426 52.0356 -65.9986 18.3671 4.0156 -77.5164 0.2598 0.1201 0.1180 -3.0758 5.8489 46.9107 -81.4116 -35.2745 65.5644 3.1995 -2.1199 64.2686 -0.3168 -0.1063 -0.1015 -17.0384 1.0794 90.0209 -168.4391 62.3145 163.3764 1.3857 2.7229 -0.8148 2.9004 -9.9220 9.3095 -26.3149 7.8871 80.3085 2.9224 55.4604 -0.7081 -4.8214 -22.3829 0.9781 1.8770 -5.0543 -17.4159 
0.0000 93.1000 0.0000 43.9057 -39.7248 -31.8520 -71.2348 0.0240 87.2735 131.3117 68.3255 -43.4017 -6.2662 23.8571 2.0715 -166.1100 20.0722 177.8616 -153.7372 59.8666 -176.8857 -0.1448 -14.6198 -33.7665 -81.1460 53.0113 -59.9684 15.7902 3.9884 -74.6056 0.1500 -0.0139 0.0092 -2.6024 6.5351 43.7031 -84.6125 -37.1819 71.7702 8.6917 -2.9984 72.2218 -0.1622 -0.0981 -0.0696 -4.5006 5.8097 94.7967 -167.7752 65.3281 162.3412 0.2982 2.1006 -0.2724 3.1558 -11.2829 9.5554 -33.8311 8.9320 87.8302 3.0242 54.6312 2.1879 -5.8077 -23.6617 1.1768 1.9781 -11.0385 -17.2546 
0.0000 93.1000 0.0000 39.8847 -40.8132 -38.9658 -71.0214 -0.1019 87.3367 131.2634 72.0031 -47.8706 -8.0035 27.0562 2.1416 -164.1599 20.6156 177.3232 -154.1923 60.4419 -176.1561 0.1938 -12.9836 -32.0155 -78.2973 56.0532 -54.0129 12.8202 2.5554 -75.4063 -0.1997 0.0614 -0.2914 -2.0271 6.0601 40.7719 -86.4671 -39.0426 77.7141 11.3210 -1.9026 82.1762 0.3068 -0.4108 -0.5262 4.1325 6.2256 97.2117 -158.3237 77.4707 152.3547 -1.7286 3.0646 0.0944 3.2474 -10.7456 7.2724 -41.3218 5.1415 92.6390 3.2562 49.4984 5.0468 -2.4299 -19.3822 0.7213 2.9349 -16.0603 -11.0346 
0.0000 93.1000 0.0000 38.8415 -41.0586 -41.0297 -71.3504 -0.0584 87.5624 130.3788 74.3721 -46.2542 -8.3868 28.6935 1.9504 -163.2308 21.8796 177.0361 -155.3936 61.1233 -176.2495 0.0864 -12.0540 -29.8326 -76.5012 59.2644 -48.7731 11.8168 3.1900 -75.3038 -0.0095 0.0505 -0.3679 -2.1122 6.0520 39.0165 -85.5249 -40.0857 82.9286 13.9061 0.2202 90.2565 0.0615 -0.4756 -0.6048 6.1485 4.7531 96.0568 -29.3522 81.5771 20.3835 -6.2127 6.9590 1.2444 2.2968 -9.0121 8.1380 -52.1763 1.7742 93.9461 2.1856 40.5480 3.9229 -1.2539 -4.4243 -0.3756 2.5020 -25.0087 11.3072 
